PathFileType	4	(X/Y/Z)	./resultDataOpenSim/trcMotMarkerGrf/sub09/qtm-15-01.trc
DataRate	CameraRate	NumFrames	NumMarkers	Units	OrigDataRate	OrigDataStartFrame	OrigNumFrames
250.000000	250.000000	8	24	m	250.000000	445	508
Frame#	Time	L.Toe.Tip			R.Toe.Tip			L.Ankle.Lat			R.Ankle.Lat			L.Ankle.Med			R.Ankle.Med			L.Heel			R.Heel			L.Knee.Lat			R.Knee.Lat			L.Knee.Med			R.Knee.Med			L.Thigh.Upper			R.Thigh.Upper			L.ASIS			R.ASIS			V.Sacral			L.Acromium			R.Acromium			C7			L.Elbow			R.Elbow			L.Wrist.Lat			R.Wrist.Lat
		X1	Y1	Z1	X2	Y2	Z2	X3	Y3	Z3	X4	Y4	Z4	X5	Y5	Z5	X6	Y6	Z6	X7	Y7	Z7	X8	Y8	Z8	X9	Y9	Z9	X10	Y10	Z10	X11	Y11	Z11	X12	Y12	Z12	X13	Y13	Z13	X14	Y14	Z14	X15	Y15	Z15	X16	Y16	Z16	X17	Y17	Z17	X18	Y18	Z18	X19	Y19	Z19	X20	Y20	Z20	X21	Y21	Z21	X22	Y22	Z22	X23	Y23	Z23	X24	Y24	Z24

445	1.776	1.8483801	0.12729726	-0.12279054	1.1078886	0.040725282	0.010824733	1.6981477	0.093896727	-0.15382566	0.98249804	0.10305971	0.057402383	1.7229367	0.1176379	-0.059615968	1.004464	0.13813428	-0.03397026	1.6537263	0.028963325	-0.097947067	0.90596348	0.10832474	0.0087411637	1.5582819	0.48878913	-0.1855846	1.2363207	0.49230996	0.1123822	1.5645481	0.48690161	-0.058216019	1.217453	0.48478818	-0.013484136	1.3719203	0.85908455	-0.21935013	1.3199898	0.88648217	0.15148957	1.4407752	0.95134943	-0.15529651	1.4284874	0.96497271	0.08861287	1.2684645	1.0093161	-0.050434323	1.4029836	1.4099632	-0.21541219	1.4047099	1.4240306	0.11741288	1.3343758	1.4654581	-0.046978913	1.2482849	1.077898	-0.26852502	1.2693077	1.0889007	0.22615929	1.3559467	0.84419832	-0.33145699	1.4357821	0.86911262	0.22789298
446	1.78	1.8516266	0.12331412	-0.12161056	1.1081279	0.04088442	0.010840785	1.7012611	0.09157014	-0.15369805	0.98525082	0.1048114	0.057987302	1.7257094	0.11498621	-0.059300037	1.0059059	0.13919747	-0.033496659	1.6559705	0.026930322	-0.098273006	0.90710367	0.11047674	0.0091487078	1.565036	0.48772418	-0.18579903	1.2412745	0.49114578	0.1124079	1.5709454	0.48669605	-0.058622895	1.2225895	0.48356259	-0.013337514	1.3776044	0.85826367	-0.22012319	1.3251824	0.88531392	0.15069982	1.4470298	0.95026656	-0.15574261	1.434234	0.96363186	0.088299732	1.2744416	1.0080341	-0.051119961	1.4082706	1.4088283	-0.21611588	1.4096206	1.4228589	0.11674617	1.3394004	1.4642287	-0.047707517	1.2539987	1.0765413	-0.26918053	1.2743539	1.0876997	0.22535771	1.3621227	0.84296777	-0.33212305	1.4405501	0.86769828	0.22744245
447	1.784	1.8545853	0.11911794	-0.12039036	1.10837	0.041043949	0.010869246	1.7040873	0.089137159	-0.15357777	0.98779811	0.10659547	0.058578314	1.728134	0.1121776	-0.05898623	1.0074386	0.14031059	-0.033012212	1.6577825	0.02489963	-0.098670221	0.90833888	0.11273856	0.0095470379	1.5717094	0.48672466	-0.18601226	1.24628	0.49003513	0.11248325	1.577399	0.48655199	-0.059062692	1.2278543	0.48230786	-0.01319172	1.3833931	0.85745867	-0.2209027	1.3304091	0.88413692	0.14991198	1.4533367	0.94921982	-0.15624678	1.4400361	0.96228404	0.087945697	1.2804878	1.0067476	-0.051815528	1.4135978	1.4077109	-0.21681875	1.4145318	1.4217251	0.11606645	1.3444415	1.4629966	-0.048445637	1.2597527	1.0752233	-0.26983253	1.2793889	1.0865491	0.22452312	1.3683028	0.84177654	-0.3327627	1.4452785	0.86631345	0.22700273
448	1.788	1.8573175	0.1146534	-0.11911433	1.1086147	0.041196805	0.010938252	1.7066515	0.086599366	-0.15341799	0.98991352	0.10835413	0.059164447	1.7302351	0.10925692	-0.058638732	1.0090666	0.14148926	-0.032511	1.6591761	0.023006158	-0.09908363	0.90966897	0.11509945	0.0099383119	1.5784182	0.48570557	-0.18620771	1.2513934	0.48892486	0.112599	1.5839016	0.48646417	-0.059532664	1.233231	0.48100631	-0.013057126	1.3892787	0.85664229	-0.22167085	1.3357305	0.88295414	0.14912621	1.459703	0.94818799	-0.15680694	1.4458988	0.96093368	0.087543723	1.2866051	1.0054613	-0.052532133	1.4189701	1.4066072	-0.21752144	1.4194418	1.420622	0.1153669	1.3495239	1.4617405	-0.049203475	1.2655515	1.0739259	-0.27050361	1.2844257	1.0854618	0.2236633	1.3744997	0.84061438	-0.3333744	1.4499598	0.8649572	0.22657938
449	1.792	1.859964	0.10974266	-0.11780097	1.1088704	0.041340305	0.011071072	1.7090188	0.084013169	-0.15314974	0.99154989	0.11005823	0.059745486	1.7321344	0.10634851	-0.058195448	1.0107937	0.14273875	-0.031983109	1.6602205	0.021429337	-0.099394678	0.9110933	0.11754998	0.010321782	1.5852169	0.48457127	-0.18638033	1.2566093	0.48778644	0.11273036	1.590446	0.48642736	-0.060030093	1.2387041	0.47963469	-0.01293331	1.3952616	0.85579713	-0.22243043	1.3411978	0.88174884	0.14833963	1.4661175	0.9471543	-0.15740891	1.4518289	0.95958531	0.087099076	1.2927737	1.0041826	-0.053260501	1.4243969	1.4055132	-0.21822923	1.4243538	1.4195432	0.11464606	1.3546457	1.4604592	-0.049994916	1.2713933	1.0726405	-0.27119772	1.2894937	1.0844474	0.22278069	1.3807277	0.83946931	-0.33396157	1.454589	0.86362687	0.22617762
450	1.796	1.862745	0.10414349	-0.11651903	1.1091405	0.041463894	0.011307975	1.7113334	0.081538979	-0.15270658	0.99247574	0.11164043	0.060322301	1.7341114	0.10367301	-0.057603271	1.0126262	0.14405149	-0.031415366	1.6610684	0.020383283	-0.099438885	0.91261553	0.12008723	0.010697699	1.5920959	0.48326175	-0.18655892	1.2618385	0.4866571	0.11285061	1.597025	0.48643642	-0.060552299	1.2442964	0.4781832	-0.012765161	1.4013666	0.85491544	-0.22318552	1.3467974	0.88049109	0.14754063	1.4725407	0.94612098	-0.15802528	1.4578319	0.9582437	0.086615946	1.2989485	1.0029266	-0.053996757	1.4298816	1.4044264	-0.21894404	1.4292773	1.4184851	0.11390773	1.3597877	1.4591709	-0.050823119	1.2772632	1.0713728	-0.27191081	1.2946397	1.0834978	0.22187997	1.3869908	0.83833478	-0.33452893	1.4591704	0.86232202	0.22579601
451	1.8	1.865868	0.097834185	-0.11536725	1.1094247	0.041565713	0.01166207	1.7137856	0.079419148	-0.15208837	0.99251088	0.11305988	0.060895747	1.7365272	0.10145053	-0.056888827	1.0145733	0.14541774	-0.030793512	1.6619245	0.020074505	-0.099120182	0.91424626	0.12271512	0.011079954	1.5989594	0.48183999	-0.18680767	1.2670444	0.48559192	0.11295711	1.6036313	0.4864862	-0.061096611	1.2501015	0.47667474	-0.012418294	1.4076293	0.85399951	-0.22392738	1.3524994	0.87915686	0.14671083	1.4789157	0.94511354	-0.15862065	1.4639132	0.95690776	0.086096524	1.305078	1.0017257	-0.05473048	1.4354182	1.403348	-0.21966396	1.4342188	1.417449	0.11315924	1.3649357	1.4579135	-0.05167789	1.2831501	1.0701274	-0.27263555	1.299905	1.0825833	0.22097669	1.393285	0.83720779	-0.33507905	1.4637186	0.8610392	0.2254306
452	1.804	1.8693807	0.091286896	-0.11441305	1.109732	0.041677395	0.012044032	1.7165165	0.077851557	-0.15140697	0.99216262	0.11444586	0.061485107	1.7395852	0.099745271	-0.056180578	1.0166362	0.14683404	-0.030105099	1.6629786	0.020573877	-0.098547569	0.91600076	0.12544798	0.011504127	1.6056902	0.48050919	-0.1871887	1.2723596	0.48457521	0.11306717	1.6102577	0.48657143	-0.061660273	1.2562281	0.47515313	-0.011795624	1.4140753	0.853067	-0.22464613	1.358317	0.87775961	0.14584242	1.4851918	0.94416741	-0.159168	1.4700679	0.95557097	0.085544534	1.3111257	1.0006206	-0.055441899	1.4409996	1.4022816	-0.22039132	1.4391826	1.4164428	0.11240959	1.3701006	1.4567428	-0.052540068	1.2890628	1.0688962	-0.27335651	1.3052702	1.0816673	0.22008531	1.3996101	0.83608337	-0.33561326	1.4682477	0.85977484	0.22507943
